<svg width="64" height="15" viewBox="0 0 64 15" fill="none" xmlns="http://www.w3.org/2000/svg">
<path d="M23.2185 6.43332V8.01038H21.6685V13.0067H19.9121V5.65222C19.9121 5.16844 20.0182 4.78935 20.2298 4.51433C20.4414 4.24054 20.6747 4.03303 20.9308 3.89366C21.2354 3.72579 21.58 3.62359 21.9639 3.58643H24.0302V5.16349H22.6426C22.4068 5.16349 22.2247 5.20066 22.0969 5.27499C21.9685 5.34994 21.8702 5.43356 21.8015 5.52647C21.7228 5.62868 21.6783 5.74947 21.6685 5.88946V6.43332H23.2185Z" fill="#F5F4F4"/>
<path d="M24.916 4.3539C24.916 4.14949 24.9186 3.99587 24.9232 3.89366C24.9285 3.79145 24.9579 3.71712 25.0117 3.67005C25.066 3.62359 25.1545 3.59819 25.2776 3.59324C25.4008 3.5889 25.5803 3.58643 25.8161 3.58643C26.0526 3.58643 26.2321 3.5889 26.3553 3.59324C26.4778 3.59819 26.5669 3.62359 26.6206 3.67005C26.675 3.71712 26.7045 3.79145 26.7091 3.89366C26.7143 3.99587 26.7169 4.14949 26.7169 4.3539C26.7169 4.55893 26.7143 4.71254 26.7091 4.81475C26.7045 4.91696 26.675 4.99129 26.6206 5.03774C26.5669 5.08482 26.4778 5.11021 26.3553 5.11455C26.2321 5.11951 26.0526 5.12198 25.8161 5.12198C25.5803 5.12198 25.4008 5.11951 25.2776 5.11455C25.1545 5.11021 25.066 5.08482 25.0117 5.03774C24.9579 4.99129 24.9285 4.91696 24.9232 4.81475C24.9186 4.71254 24.916 4.55893 24.916 4.3539ZM26.7169 5.93096V13.0067H24.916V5.93096H26.7169Z" fill="#F5F4F4"/>
<path d="M27.6909 7.9967C27.6909 7.51293 27.7997 7.13384 28.0159 6.85943C28.232 6.58502 28.4685 6.37751 28.724 6.23814C29.0293 6.0709 29.3739 5.96869 29.7578 5.93091H31.824V7.61947H30.4365C30.2393 7.61947 30.0795 7.6523 29.957 7.71734C29.8338 7.78238 29.7375 7.85237 29.6694 7.92671C29.5901 8.01962 29.5364 8.12245 29.5069 8.23395V13.0066H27.6909V7.9967Z" fill="#F5F4F4"/>
<path fill-rule="evenodd" clip-rule="evenodd" d="M39.5874 8.56853C39.607 8.70852 39.6241 8.85285 39.6391 9.00151C39.6536 9.15018 39.6608 9.30875 39.6608 9.476V9.72749H34.4952C34.5148 9.88544 34.5391 10.0459 34.5686 10.2088C34.598 10.3717 34.6472 10.5321 34.7166 10.6901C34.8247 10.9323 34.9918 11.146 35.2178 11.3324C35.4444 11.5183 35.7596 11.6112 36.1631 11.6112C36.566 11.6112 36.8811 11.5183 37.1078 11.3324C37.3338 11.146 37.5008 10.9323 37.6089 10.6901H39.5278C39.4492 11.0159 39.3384 11.2996 39.1963 11.5412C39.0528 11.7834 38.8956 11.9927 38.7239 12.1693C38.5517 12.3464 38.3669 12.4926 38.1704 12.6091C37.9732 12.7255 37.7812 12.8209 37.5945 12.8953C37.1418 13.0625 36.6649 13.1461 36.1631 13.1461C35.5034 13.1368 34.9177 13.0067 34.4061 12.7559C34.1899 12.6438 33.9757 12.5019 33.7641 12.3297C33.5525 12.1581 33.3658 11.9413 33.2033 11.6812C33.0415 11.4204 32.9105 11.1088 32.8122 10.7458C32.7139 10.3828 32.6648 9.95977 32.6648 9.476C32.6648 8.99222 32.7139 8.56853 32.8122 8.20617C32.9105 7.84318 33.0415 7.52914 33.2033 7.26402C33.3658 6.9989 33.5525 6.77776 33.7641 6.60123C33.9757 6.42469 34.1899 6.28036 34.4061 6.16825C34.9177 5.90809 35.5034 5.76871 36.1631 5.74951C36.7036 5.76871 37.2106 5.87526 37.683 6.071C37.8795 6.15462 38.0793 6.26426 38.2811 6.39868C38.4822 6.53372 38.6696 6.70096 38.8419 6.90104C39.0142 7.10111 39.1668 7.33835 39.2991 7.61276C39.4321 7.88717 39.5278 8.20617 39.5874 8.56853ZM37.7275 8.56853C37.6777 8.41987 37.6168 8.27121 37.5428 8.12255C37.4687 7.97327 37.3679 7.83885 37.2401 7.71744C37.1124 7.59665 36.9597 7.50126 36.7828 7.43126C36.6053 7.36189 36.3989 7.32658 36.1631 7.32658C35.9266 7.32658 35.7202 7.36189 35.5427 7.43126C35.3658 7.50126 35.2132 7.59665 35.0854 7.71744C34.9577 7.83885 34.8542 7.97327 34.7756 8.12255C34.6963 8.27121 34.6373 8.41987 34.598 8.56853H37.7275Z" fill="#F5F4F4"/>
<path fill-rule="evenodd" clip-rule="evenodd" d="M46.084 7.32653C45.9897 7.10664 45.881 6.91523 45.7591 6.75294V6.92204L46.084 7.32653ZM45.7591 3.58643H47.5161V9.4617C47.5161 9.94609 47.467 10.3692 47.3687 10.7321C47.2704 11.0945 47.1401 11.4086 46.977 11.6743C46.8151 11.9394 46.6304 12.1581 46.4234 12.3297C46.217 12.5019 46.0048 12.6437 45.7886 12.7558C45.2763 13.0067 44.7004 13.1368 44.061 13.1461C43.4014 13.1368 42.8157 13.0067 42.3034 12.7558C42.0865 12.6437 41.873 12.5019 41.6614 12.3297C41.4491 12.1581 41.2624 11.9413 41.1 11.6811C40.9375 11.4203 40.8071 11.1088 40.7088 10.7458C40.6099 10.3828 40.5608 9.95972 40.5608 9.47595C40.5608 8.99217 40.6073 8.56848 40.7016 8.20612C40.7947 7.84313 40.9178 7.52909 41.0705 7.26397C41.2231 6.99885 41.3954 6.77771 41.5874 6.60118C41.7793 6.42464 41.9785 6.28031 42.1855 6.1682C42.6578 5.90804 43.1989 5.76867 43.8095 5.74946C44.1148 5.77734 44.4102 5.84733 44.6959 5.95883C44.9415 6.06166 45.1924 6.21714 45.4492 6.4265C45.5606 6.51818 45.6641 6.62658 45.7591 6.75294V3.58643ZM44.061 11.5554C44.4246 11.5554 44.7181 11.4854 44.9396 11.346C45.161 11.2066 45.3333 11.0319 45.4564 10.8226C45.5796 10.6132 45.6602 10.3877 45.7001 10.1456C45.7388 9.90397 45.7591 9.68098 45.7591 9.47595C45.7591 9.27153 45.7388 9.04792 45.7001 8.80635C45.6602 8.56415 45.5796 8.33868 45.4564 8.12931C45.3333 7.91994 45.161 7.74527 44.9396 7.6059C44.7181 7.46652 44.4246 7.39653 44.061 7.39653C43.6962 7.39653 43.4033 7.46652 43.1819 7.6059C42.9605 7.74527 42.7908 7.91994 42.6729 8.12931C42.5549 8.33868 42.4757 8.56415 42.4364 8.80635C42.3971 9.04792 42.3774 9.27153 42.3774 9.47595C42.3774 9.68098 42.3971 9.90397 42.4364 10.1456C42.4757 10.3877 42.5549 10.6132 42.6729 10.8226C42.7908 11.0319 42.9605 11.2066 43.1819 11.346C43.4033 11.4854 43.6962 11.5554 44.061 11.5554Z" fill="#F5F4F4"/>
<path fill-rule="evenodd" clip-rule="evenodd" d="M55.4246 8.56853C55.4443 8.70852 55.462 8.85285 55.4764 9.00151C55.4914 9.15018 55.4986 9.30875 55.4986 9.476V9.72749H50.3324C50.3521 9.88544 50.377 10.0459 50.4064 10.2088C50.4359 10.3717 50.4851 10.5321 50.5538 10.6901C50.6619 10.9323 50.8296 11.146 51.0557 11.3324C51.2823 11.5183 51.5968 11.6112 52.0003 11.6112C52.4039 11.6112 52.719 11.5183 52.945 11.3324C53.1717 11.146 53.3387 10.9323 53.4468 10.6901H55.3657C55.287 11.0159 55.1763 11.2996 55.0335 11.5412C54.8907 11.7834 54.7335 11.9927 54.5612 12.1693C54.3889 12.3464 54.2048 12.4926 54.0076 12.6091C53.8111 12.7255 53.6191 12.8209 53.4324 12.8953C52.9797 13.0625 52.5022 13.1461 52.0003 13.1461C51.3413 13.1368 50.7556 13.0067 50.244 12.7559C50.0278 12.6438 49.8136 12.5019 49.602 12.3297C49.3904 12.1581 49.2037 11.9413 49.0412 11.6812C48.8787 11.4204 48.7484 11.1088 48.6501 10.7458C48.5518 10.3828 48.5027 9.95977 48.5027 9.476C48.5027 8.99222 48.5518 8.56853 48.6501 8.20617C48.7484 7.84318 48.8787 7.52914 49.0412 7.26402C49.2037 6.9989 49.3904 6.77776 49.602 6.60123C49.8136 6.42469 50.0278 6.28036 50.244 6.16825C50.7556 5.90809 51.3413 5.76871 52.0003 5.74951C52.5415 5.76871 53.0485 5.87526 53.5209 6.071C53.7174 6.15462 53.9165 6.26426 54.1183 6.39868C54.3201 6.53372 54.5075 6.70096 54.6798 6.90104C54.8514 7.10111 55.004 7.33835 55.137 7.61276C55.27 7.88717 55.3657 8.20617 55.4246 8.56853ZM53.5647 8.56853C53.5156 8.41987 53.454 8.27121 53.3807 8.12255C53.3066 7.97327 53.2057 7.83885 53.078 7.71744C52.9502 7.59665 52.7976 7.50126 52.6207 7.43126C52.4432 7.36189 52.2368 7.32658 52.0003 7.32658C51.7645 7.32658 51.5575 7.36189 51.3806 7.43126C51.2037 7.50126 51.0511 7.59665 50.9227 7.71744C50.7949 7.83885 50.6921 7.97327 50.6128 8.12255C50.5342 8.27121 50.4752 8.41987 50.4359 8.56853H53.5647Z" fill="#F5F4F4"/>
<path d="M59.8969 13.0066H58.6863L56.2512 5.93091H58.0665L59.8969 11.2202L61.7267 5.93091H63.542L61.1069 13.0066H59.8969Z" fill="#F5F4F4"/>
<path d="M2.52206 9.36497C2.99505 9.11162 3.16996 8.74431 3.45166 8.47919C5.33774 6.70205 7.20808 4.91128 9.09023 3.13042C9.95563 2.31215 10.481 2.3041 11.353 3.09511C11.9583 3.64454 12.5525 4.20451 13.0543 4.84686C15.4769 7.94524 14.6928 12.4739 11.4113 14.6221C10.6749 15.104 10.3762 14.6815 9.92025 14.2993C9.41385 13.8744 9.59073 13.5746 9.94187 13.167C10.8656 12.0967 11.8109 11.035 12.0179 9.5793C12.2322 8.07161 11.7022 6.82221 10.6573 5.71901C10.3592 5.40372 10.1168 5.4477 9.82199 5.73078C8.2412 7.25086 6.65255 8.7635 5.05997 10.2724C4.12839 11.1545 3.93383 12.1828 4.54832 13.2544C4.99052 14.0256 4.40027 14.3371 3.96986 14.6431C3.46739 15.0005 3.24006 14.7156 2.92561 14.4957C-0.641487 11.9969 -1.00573 7.20812 2.15847 4.01249C3.42022 2.73832 4.76451 1.53724 6.05246 0.285997C6.43702 -0.0881383 6.71609 -0.0992895 7.12226 0.276704C8.33947 1.4053 8.35388 1.39168 7.17009 2.51656C6.08784 3.54605 4.98528 4.55697 3.92793 5.60876C2.91119 6.62028 2.37073 7.81825 2.52206 9.36497Z" fill="url(#paint0_linear_134_417)"/>
<defs>
<linearGradient id="paint0_linear_134_417" x1="0.883028" y1="-0.120721" x2="13.5811" y2="-0.120721" gradientUnits="userSpaceOnUse">
<stop stop-color="#FF5630"/>
<stop offset="1" stop-color="#FF3570"/>
</linearGradient>
</defs>
</svg>
