<svg width="17" height="16" viewBox="0 0 17 16" fill="none" xmlns="http://www.w3.org/2000/svg">
<path d="M5.83958 5.119L8.01332 0.792C8.05507 0.704954 8.12031 0.631433 8.2016 0.57981C8.2829 0.528186 8.37698 0.500533 8.47315 0.5C8.65529 0.5 8.83743 0.597 8.93597 0.792L11.1097 5.119L15.9847 5.815C16.1062 5.83419 16.2174 5.89491 16.2996 5.98691C16.3817 6.07891 16.4297 6.19655 16.4356 6.32C16.4425 6.40219 16.4309 6.48489 16.4016 6.56194C16.3723 6.63899 16.3261 6.7084 16.2664 6.765L12.7599 10.121L13.586 14.851C13.6637 15.294 13.2277 15.641 12.8435 15.443L8.47315 13.187L4.10477 15.443C4.05908 15.4668 4.0101 15.4837 3.95946 15.493C3.61906 15.553 3.2946 15.239 3.36228 14.851L4.18838 10.121L0.682922 6.765C0.628424 6.7132 0.585107 6.65069 0.555658 6.58137C0.526208 6.51204 0.511256 6.43737 0.51173 6.362C0.511781 6.25544 0.541053 6.15095 0.59633 6.06C0.635544 5.99407 0.688992 5.93783 0.75273 5.89542C0.816468 5.85302 0.88887 5.82553 0.964592 5.815L5.83958 5.119ZM8.47315 12.027C8.55349 12.0267 8.63272 12.0459 8.70406 12.083L12.3727 13.977L11.682 10.02C11.6657 9.929 11.6719 9.83536 11.7 9.74731C11.7281 9.65926 11.7773 9.57949 11.8432 9.515L14.7366 6.745L10.7036 6.169C10.6201 6.15633 10.5409 6.12351 10.4728 6.07335C10.4047 6.02319 10.3497 5.95719 10.3125 5.881L8.47415 2.223L8.47315 2.226V12.026V12.027Z" fill="#FFC643"/>
</svg>
